<svg xmlns="http://www.w3.org/2000/svg" xmlns:xlink="http://www.w3.org/1999/xlink" width="32" height="32" viewBox="0 0 32 32"><defs><clipPath id="a"><rect width="32" height="32" transform="translate(1969 780)" fill="#fff" stroke="#707070" stroke-width="1"/></clipPath></defs><g transform="translate(-1969 -780)" clip-path="url(#a)"><path d="M951.247,5355.811l-10.895-5.138a.622.622,0,0,1-.353-.563v-13.325a.623.623,0,0,1,.353-.564l10.895-5.137a.587.587,0,0,1,.505,0l10.9,5.137a.622.622,0,0,1,.352.564v13.325a.622.622,0,0,1-.352.563l-10.9,5.138a.591.591,0,0,1-.505,0Zm.858-1.533,9.684-4.566v-11.958l-9.684,4.567Zm-10.9-4.566,9.684,4.566v-11.958l-9.684-4.567Zm10.29-8.473,9.445-4.454-9.445-4.455-9.445,4.455Z" transform="translate(1033.5 -4547.525)" fill="#5cffc0" stroke="#5cffc1" stroke-width="1"/></g></svg>